<svg xmlns="http://www.w3.org/2000/svg" viewBox="0 0 512 512">
  <defs>
    <linearGradient id="grad1" x1="0%" y1="0%" x2="0%" y2="100%">
      <stop offset="0%" style="stop-color:#001f3f;stop-opacity:1" />
      <stop offset="25%" style="stop-color:#0074D9;stop-opacity:1" />
      <stop offset="50%" style="stop-color:#00bcd4;stop-opacity:1" />
      <stop offset="75%" style="stop-color:#39CCCC;stop-opacity:1" />
      <stop offset="100%" style="stop-color:#2ECC40;stop-opacity:1" />
    </linearGradient>
  </defs>

  <!-- Background -->
  <rect width="512" height="512" fill="#f8f9fa"/>

  <!-- Diamond rotated 45 degrees -->
  <g transform="translate(256, 256) rotate(45)">
    <!-- Main diamond shape with gradient -->
    <rect x="-180" y="-180" width="360" height="360" fill="url(#grad1)" stroke="#666" stroke-width="4"/>

    <!-- Grid lines -->
    <line x1="-180" y1="-120" x2="180" y2="-120" stroke="#666" stroke-width="2"/>
    <line x1="-180" y1="-60" x2="180" y2="-60" stroke="#666" stroke-width="2"/>
    <line x1="-180" y1="0" x2="180" y2="0" stroke="#666" stroke-width="2"/>
    <line x1="-180" y1="60" x2="180" y2="60" stroke="#666" stroke-width="2"/>
    <line x1="-180" y1="120" x2="180" y2="120" stroke="#666" stroke-width="2"/>

    <line x1="-120" y1="-180" x2="-120" y2="180" stroke="#666" stroke-width="2"/>
    <line x1="-60" y1="-180" x2="-60" y2="180" stroke="#666" stroke-width="2"/>
    <line x1="0" y1="-180" x2="0" y2="180" stroke="#666" stroke-width="2"/>
    <line x1="60" y1="-180" x2="60" y2="180" stroke="#666" stroke-width="2"/>
    <line x1="120" y1="-180" x2="120" y2="180" stroke="#666" stroke-width="2"/>

    <!-- Diagonal cross lines -->
    <line x1="-180" y1="-180" x2="180" y2="180" stroke="#666" stroke-width="2"/>
    <line x1="-180" y1="180" x2="180" y2="-180" stroke="#666" stroke-width="2"/>

    <!-- Additional diagonal subdivisions -->
    <line x1="-180" y1="-60" x2="-60" y2="-180" stroke="#666" stroke-width="2"/>
    <line x1="-180" y1="60" x2="60" y2="-180" stroke="#666" stroke-width="2"/>
    <line x1="60" y1="-180" x2="180" y2="-60" stroke="#666" stroke-width="2"/>
    <line x1="180" y1="60" x2="60" y2="180" stroke="#666" stroke-width="2"/>
    <line x1="180" y1="-60" x2="-60" y2="180" stroke="#666" stroke-width="2"/>
    <line x1="-60" y1="180" x2="-180" y2="60" stroke="#666" stroke-width="2"/>

    <!-- Center points -->
    <circle cx="-120" cy="-120" r="4" fill="#666"/>
    <circle cx="-60" cy="-120" r="4" fill="#666"/>
    <circle cx="0" cy="-120" r="4" fill="#666"/>
    <circle cx="60" cy="-120" r="4" fill="#666"/>
    <circle cx="120" cy="-120" r="4" fill="#666"/>

    <circle cx="-120" cy="-60" r="4" fill="#666"/>
    <circle cx="-60" cy="-60" r="4" fill="#666"/>
    <circle cx="0" cy="-60" r="4" fill="#666"/>
    <circle cx="60" cy="-60" r="4" fill="#666"/>
    <circle cx="120" cy="-60" r="4" fill="#666"/>

    <circle cx="-120" cy="0" r="4" fill="#666"/>
    <circle cx="-60" cy="0" r="4" fill="#666"/>
    <circle cx="0" cy="0" r="4" fill="#666"/>
    <circle cx="60" cy="0" r="4" fill="#666"/>
    <circle cx="120" cy="0" r="4" fill="#666"/>

    <circle cx="-120" cy="60" r="4" fill="#666"/>
    <circle cx="-60" cy="60" r="4" fill="#666"/>
    <circle cx="0" cy="60" r="4" fill="#666"/>
    <circle cx="60" cy="60" r="4" fill="#666"/>
    <circle cx="120" cy="60" r="4" fill="#666"/>

    <circle cx="-120" cy="120" r="4" fill="#666"/>
    <circle cx="-60" cy="120" r="4" fill="#666"/>
    <circle cx="0" cy="120" r="4" fill="#666"/>
    <circle cx="60" cy="120" r="4" fill="#666"/>
    <circle cx="120" cy="120" r="4" fill="#666"/>
  </g>
</svg>
